<svg width="950.0887084960937px" height="242.39999999999999px" xmlns="http://www.w3.org/2000/svg" viewBox="0.955645751953142 14.300000000000004 498.0887084960937 121.39999999999999" style="background: rgba(0, 0, 0, 0);" preserveAspectRatio="xMidYMid"><defs>
  <filter id="editing-scratch" x="-100%" y="-100%" width="300%" height="300%">
    <!-- COLOR -->
    <feFlood flood-color="#ddd" flood-opacity="0.75" result="COLOR-blu"></feFlood>
    <feFlood flood-color="#666" flood-opacity="0.4" result="COLOR-red"></feFlood>
    <!-- COLOR END -->

    <!-- Texture -->
    <feTurbulence baseFrequency=".05" type="fractalNoise" numOctaves="3" seed="0" result="Texture_10"></feTurbulence>
    <feColorMatrix type="matrix" values="0 0 0 0 0,
    0 0 0 0 0,
    0 0 0 0 0,
    0 0 0 -2.1 1.1" in="Texture_10" result="Texture_20"></feColorMatrix>

    <feColorMatrix result="Texture_30" type="matrix" values="0 0 0 0 0,
    0 0 0 0 0,
    0 0 0 0 0,
    0 0 0 -1.7 1.8" in="Texture_10"></feColorMatrix>
    <!-- Texture -->

    <!-- FILL -->
    <feOffset dx="-3" dy="4" in="SourceAlpha" result="FILL_10"></feOffset>
    <feDisplacementMap scale="17" in="FILL_10" in2="Texture_10" result="FILL_20"></feDisplacementMap>
    <feComposite operator="in" in="Texture_30" in2="FILL_20" result="FILL_40"></feComposite>
    <feComposite operator="in" in="COLOR-blu" in2="FILL_40" result="FILL_50"></feComposite>
    <!-- FILL END-->

    <!-- OUTLINE -->
    <feMorphology operator="dilate" radius="3" in="SourceGraphic" result="OUTLINE_10"></feMorphology>
    <feComposite operator="out" in="OUTLINE_10" in2="SourceGraphic" result="OUTLINE_20"></feComposite>
    <feDisplacementMap scale="7" in="OUTLINE_20" in2="Texture_10" result="OUTLINE_30"></feDisplacementMap>
    <feComposite operator="arithmetic" k2="-1" k3="1" in="Texture_20" in2="OUTLINE_30" result="OUTLINE_40"></feComposite>
    <!-- OUTLINE END-->

    <!-- BEVEL OUTLINE -->
    <feConvolveMatrix order="8,8" divisor="1" kernelMatrix="1 0 0 0 0 0 0 0 0 1 0 0 0 0 0 0 0 0 1 0 0 0 0 0 0 0 0 1 0 0 0 0 0 0 0 0 1 0 0 0 0 0 0 0 0 1 0 0 0 0 0 0 0 0 1 0 0 0 0 0 0 0 0 1 " in="SourceGraphic" result="BEVEL_10"></feConvolveMatrix>
    <feMorphology operator="dilate" radius="2" in="BEVEL_10" result="BEVEL_20"></feMorphology>
    <feComposite operator="out" in="BEVEL_20" in2="BEVEL_10" result="BEVEL_30"></feComposite>
    <feDisplacementMap scale="7" in="BEVEL_30" in2="Texture_10" result="BEVEL_40"></feDisplacementMap>
    <feComposite operator="arithmetic" k2="-1" k3="1" in="Texture_20" in2="BEVEL_40" result="BEVEL_50"></feComposite>
    <feOffset dx="-7" dy="-7" in="BEVEL_50" result="BEVEL_60"></feOffset>
    <feComposite operator="out" in="BEVEL_60" in2="OUTLINE_10" result="BEVEL_70"></feComposite>
    <!-- BEVEL OUTLINE END -->

    <!-- BEVEL FILL -->
    <feOffset dx="-9" dy="-9" in="BEVEL_10" result="BEVEL-FILL_10"></feOffset>
    <feComposite operator="out" in="BEVEL-FILL_10" in2="OUTLINE_10" result="BEVEL-FILL_20"></feComposite>
    <feDisplacementMap scale="17" in="BEVEL-FILL_20" in2="Texture_10" result="BEVEL-FILL_30"></feDisplacementMap>
    <feComposite operator="in" in="COLOR-red" in2="BEVEL-FILL_30" result="BEVEL-FILL_50"></feComposite> <!-- -->
    <!-- BEVEL FILL END-->

    <feMerge result="merge2">
     <feMergeNode in="BEVEL-FILL_50"></feMergeNode>
     <feMergeNode in="BEVEL_70"></feMergeNode>
     <feMergeNode in="FILL_50"></feMergeNode>
      <feMergeNode in="OUTLINE_40"></feMergeNode>
    </feMerge>
  </filter>
</defs>
<g filter="url(#editing-scratch)"><g transform="translate(74.7655990421772, 97.43000030517578)"><path d="M0.45-0.32L0.45-0.32L8.51-42.24L8.51-42.24Q16.06-42.88 20.93-42.88L20.93-42.88L20.93-42.88Q25.79-42.88 28.93-42.46L28.93-42.46L28.93-42.46Q32.06-42.05 34.18-40.96L34.18-40.96L34.18-40.96Q38.40-38.91 38.40-33.28L38.40-33.28L38.40-33.28Q38.40-30.02 35.58-27.26L35.58-27.26L35.58-27.26Q32.96-24.77 30.08-24.19L30.08-24.19L30.08-24.19Q33.15-23.68 35.33-21.38L35.33-21.38L35.33-21.38Q37.63-18.94 37.63-15.17L37.63-15.17L37.63-15.17Q37.63-7.87 32.19-3.62L32.19-3.62L32.19-3.62Q26.75 0.64 16.06 0.64L16.06 0.64L16.06 0.64Q8.70 0.64 0.45-0.32ZM17.86-20.61L14.66-4.03L14.66-4.03Q15.23-3.97 15.36-3.97L15.36-3.97L15.94-3.97L15.94-3.97Q21.18-3.97 23.42-7.42L23.42-7.42L23.42-7.42Q25.09-10.11 25.09-15.04L25.09-15.04L25.09-15.04Q25.09-17.66 23.39-19.07L23.39-19.07L23.39-19.07Q21.70-20.48 17.86-20.61L17.86-20.61ZM27.58-33.22L27.58-33.22L27.58-33.22Q27.58-38.53 22.46-38.53L22.46-38.53L21.89-38.53L21.89-38.53Q21.63-38.53 21.25-38.46L21.25-38.46L18.69-24.96L19.33-24.96L19.33-24.96Q27.58-25.15 27.58-33.22ZM68.61-9.86L68.61-9.86L68.61-9.86Q69.82-8.32 69.82-5.34L69.82-5.34L69.82-5.34Q69.82-2.37 67.55-0.54L67.55-0.54L67.55-0.54Q65.28 1.28 61.31 1.28L61.31 1.28L61.31 1.28Q59.01 1.28 55.42 0.77L55.42 0.77L55.42 0.77Q48.38-0.32 46.37-0.32L46.37-0.32L46.37-0.32Q44.35-0.32 43.52-0.22L43.52-0.22L43.52-0.22Q42.69-0.13 41.34 0L41.34 0L49.09-42.24L63.10-42.24L56.70-7.04L56.70-7.04Q57.54-6.91 58.30-6.91L58.30-6.91L59.90-6.91L59.90-6.91Q65.28-6.91 68.61-9.86ZM74.43-15.62L74.43-15.62L74.43-15.62Q74.43-27.71 80.70-35.33L80.70-35.33L80.70-35.33Q87.36-43.58 98.94-43.58L98.94-43.58L98.94-43.58Q107.33-43.58 111.55-39.52L111.55-39.52L111.55-39.52Q115.78-35.46 115.78-26.88L115.78-26.88L115.78-26.88Q115.78-13.82 109.12-6.21L109.12-6.21L109.12-6.21Q102.53 1.28 91.46 1.28L91.46 1.28L91.46 1.28Q82.82 1.28 78.62-3.04L78.62-3.04L78.62-3.04Q74.43-7.36 74.43-15.62ZM91.26-28.86L91.26-28.86L91.26-28.86Q88.38-17.34 88.38-8.26L88.38-8.26L88.38-8.26Q88.38-6.08 89.12-4.67L89.12-4.67L89.12-4.67Q89.86-3.26 91.81-3.26L91.81-3.26L91.81-3.26Q93.76-3.26 94.98-4.19L94.98-4.19L94.98-4.19Q96.19-5.12 97.15-7.23L97.15-7.23L97.15-7.23Q98.69-10.69 100.13-18.02L100.13-18.02L100.13-18.02Q101.57-25.34 101.70-28.38L101.70-28.38L101.70-28.38Q101.82-31.42 101.82-33.73L101.82-33.73L101.82-33.73Q101.82-36.03 101.12-37.50L101.12-37.50L101.12-37.50Q100.42-38.98 98.53-38.98L98.53-38.98L98.53-38.98Q96.64-38.98 95.36-37.82L95.36-37.82L95.36-37.82Q92.99-35.65 91.26-28.86ZM144.83-20.61L157.76-21.76L157.76-21.76Q153.15-11.65 153.15 0.06L153.15 0.06L153.15 0.06Q151.42 1.28 148.90 1.28L148.90 1.28L148.90 1.28Q146.37 1.28 144.77 0.10L144.77 0.10L144.77 0.10Q143.17-1.09 142.85-2.30L142.85-2.30L142.85-2.30Q141.25-0.64 138.66 0.32L138.66 0.32L138.66 0.32Q136.06 1.28 133.31 1.28L133.31 1.28L133.31 1.28Q130.56 1.28 128.16 0.38L128.16 0.38L128.16 0.38Q125.76-0.51 123.90-2.50L123.90-2.50L123.90-2.50Q119.81-6.85 119.81-15.10L119.81-15.10L119.81-15.10Q119.81-27.90 126.66-35.58L126.66-35.58L126.66-35.58Q133.70-43.52 146.18-43.52L146.18-43.52L146.18-43.52Q154.82-43.52 157.89-39.04L157.89-39.04L157.89-39.04Q158.85-37.63 158.85-35.94L158.85-35.94L158.85-35.94Q158.85-34.24 158.11-32.80L158.11-32.80L158.11-32.80Q157.38-31.36 156.22-30.21L156.22-30.21L156.22-30.21Q153.47-27.65 150.08-27.65L150.08-27.65L150.08-27.65Q148.74-27.65 147.46-28.10L147.46-28.10L147.46-28.10Q147.71-30.02 147.71-32.26L147.71-32.26L147.71-32.26Q147.71-34.50 147.55-35.52L147.55-35.52L147.55-35.52Q147.39-36.54 147.01-37.38L147.01-37.38L147.01-37.38Q146.18-39.10 144.35-39.10L144.35-39.10L144.35-39.10Q142.53-39.10 140.51-37.15L140.51-37.15L140.51-37.15Q138.50-35.20 136.90-32L136.90-32L136.90-32Q133.38-24.83 133.38-16.19L133.38-16.19L133.38-16.19Q133.38-12.22 134.91-9.41L134.91-9.41L134.91-9.41Q136.58-6.34 139.52-6.34L139.52-6.34L139.52-6.34Q140.54-6.34 141.47-6.85L141.47-6.85L141.47-6.85Q142.40-7.36 142.78-7.74L142.78-7.74L144.83-20.61ZM185.86-29.57L185.86-29.57L185.86-29.57Q186.82-31.49 186.82-33.28L186.82-33.28L186.82-33.28Q186.82-35.07 186.62-36.06L186.62-36.06L186.62-36.06Q186.43-37.06 185.98-37.82L185.98-37.82L185.98-37.82Q185.02-39.49 183.10-39.49L183.10-39.49L183.10-39.49Q180.74-39.49 178.82-37.76L178.82-37.76L178.82-37.76Q176.77-35.97 176.77-33.15L176.77-33.15L176.77-33.15Q176.77-31.36 178.02-29.98L178.02-29.98L178.02-29.98Q179.26-28.61 181.18-27.33L181.18-27.33L181.18-27.33Q183.10-26.05 185.28-24.77L185.28-24.77L185.28-24.77Q187.46-23.49 189.38-21.95L189.38-21.95L189.38-21.95Q193.79-18.43 193.79-13.70L193.79-13.70L193.79-13.70Q193.79-10.50 192.10-7.78L192.10-7.78L192.10-7.78Q190.40-5.06 187.58-3.07L187.58-3.07L187.58-3.07Q181.44 1.28 173.31 1.28L173.31 1.28L173.31 1.28Q166.72 1.28 163.33-0.86L163.33-0.86L163.33-0.86Q159.94-3.01 159.94-6.27L159.94-6.27L159.94-6.27Q159.94-12.10 164.48-13.57L164.48-13.57L164.48-13.57Q165.76-14.02 167.71-14.02L167.71-14.02L167.71-14.02Q169.66-14.02 171.90-13.18L171.90-13.18L171.90-13.18Q170.88-10.56 170.88-8.19L170.88-8.19L170.88-8.19Q170.88-3.07 174.53-3.07L174.53-3.07L174.53-3.07Q176.90-3.07 178.85-4.80L178.85-4.80L178.85-4.80Q180.80-6.53 180.80-8.48L180.80-8.48L180.80-8.48Q180.80-10.43 179.55-11.84L179.55-11.84L179.55-11.84Q178.30-13.25 176.45-14.37L176.45-14.37L176.45-14.37Q174.59-15.49 172.45-16.58L172.45-16.58L172.45-16.58Q170.30-17.66 168.45-19.20L168.45-19.20L168.45-19.20Q164.10-22.72 164.10-28.35L164.10-28.35L164.10-28.35Q164.10-32 165.89-34.85L165.89-34.85L165.89-34.85Q167.68-37.70 170.56-39.62L170.56-39.62L170.56-39.62Q176.32-43.52 183.39-43.52L183.39-43.52L183.39-43.52Q190.46-43.52 193.89-41.41L193.89-41.41L193.89-41.41Q197.31-39.30 197.31-35.71L197.31-35.71L197.31-35.71Q197.31-32.58 194.88-30.59L194.88-30.59L194.88-30.59Q192.77-28.93 190.21-28.93L190.21-28.93L190.21-28.93Q187.65-28.93 185.86-29.57ZM223.68-42.69L223.68-42.69L223.68-42.69Q239.36-42.69 239.36-31.62L239.36-31.62L239.36-31.62Q239.36-25.54 235.46-21.89L235.46-21.89L235.46-21.89Q231.62-18.24 224.90-18.24L224.90-18.24L224.90-18.24Q221.76-18.24 219.33-20.03L219.33-20.03L219.33-20.03Q218.18-20.80 217.41-21.82L217.41-21.82L217.41-21.82Q222.08-21.82 224.54-24.67L224.54-24.67L224.54-24.67Q227.01-27.52 227.01-33.09L227.01-33.09L227.01-33.09Q227.01-38.66 221.50-38.66L221.50-38.66L219.97-38.66L219.97-38.66Q219.58-38.66 219.26-38.59L219.26-38.59L211.90 0L198.02 0L205.89-41.92L205.89-41.92Q212.74-42.56 216.70-42.62L216.70-42.62L216.70-42.62Q220.67-42.69 223.68-42.69ZM266.24 1.28L266.24 1.28L266.24 1.28Q258.05 1.28 257.28-10.37L257.28-10.37L246.27-10.37L246.27-10.37Q244.99-7.42 244.10-4.86L244.10-4.86L242.43 0L233.47 0L253.63-42.24L267.39-42.24L270.08-11.14L270.08-11.14Q270.72-4.42 273.28-2.43L273.28-2.43L273.28-2.43Q271.42 1.28 266.24 1.28ZM251.78-23.17L248.26-15.04L257.09-15.04L256.32-31.49L256.32-33.22L251.78-23.17ZM309.70-13.25L309.70-13.25L309.70-13.25Q311.36-12.03 311.36-9.44L311.36-9.44L311.36-9.44Q311.36-6.85 310.24-5.02L310.24-5.02L310.24-5.02Q309.12-3.20 306.94-1.79L306.94-1.79L306.94-1.79Q302.27 1.22 294.11 1.22L294.11 1.22L294.11 1.22Q285.95 1.22 281.50-3.04L281.50-3.04L281.50-3.04Q277.06-7.30 277.06-14.85L277.06-14.85L277.06-14.85Q277.06-25.54 282.62-33.66L282.62-33.66L282.62-33.66Q286.85-39.68 294.40-42.24L294.40-42.24L294.40-42.24Q298.30-43.52 302.14-43.52L302.14-43.52L302.14-43.52Q305.98-43.52 308.35-43.01L308.35-43.01L308.35-43.01Q310.72-42.50 312.51-41.47L312.51-41.47L312.51-41.47Q316.42-39.23 316.42-35.65L316.42-35.65L316.42-35.65Q316.42-32.38 313.34-29.95L313.34-29.95L313.34-29.95Q310.53-27.78 308.22-27.78L308.22-27.78L308.22-27.78Q305.92-27.78 304.96-28.10L304.96-28.10L304.96-28.10Q305.22-30.40 305.22-31.90L305.22-31.90L305.22-31.90Q305.22-33.41 305.15-34.50L305.15-34.50L305.15-34.50Q305.09-35.58 304.77-36.61L304.77-36.61L304.77-36.61Q304.13-38.98 302.18-38.98L302.18-38.98L302.18-38.98Q300.22-38.98 298.27-37.15L298.27-37.15L298.27-37.15Q296.32-35.33 294.66-32.26L294.66-32.26L294.66-32.26Q290.88-25.28 290.88-17.02L290.88-17.02L290.88-17.02Q290.88-13.06 293.12-10.78L293.12-10.78L293.12-10.78Q295.36-8.51 300.16-8.51L300.16-8.51L300.16-8.51Q303.74-8.51 307.14-10.88L307.14-10.88L307.14-10.88Q308.61-11.90 309.70-13.25ZM344-9.86L344-9.86L344-9.86Q345.22-8.32 345.22-5.82L345.22-5.82L345.22-5.82Q345.22-2.37 342.66-0.54L342.66-0.54L342.66-0.54Q340.10 1.28 336.06 1.28L336.06 1.28L336.06 1.28Q333.76 1.28 330.24 0.77L330.24 0.77L330.24 0.77Q323.33-0.32 321.22-0.32L321.22-0.32L321.22-0.32Q319.10-0.32 318.27-0.22L318.27-0.22L318.27-0.22Q317.44-0.13 316.10 0L316.10 0L323.97-42.24L351.55-42.24L351.55-42.24Q351.55-38.34 349.66-36.29L349.66-36.29L349.66-36.29Q347.78-34.24 344.06-34.24L344.06-34.24L344.06-34.24Q340.35-34.24 336.58-35.97L336.58-35.97L334.59-24.77L345.98-24.77L345.98-24.77Q345.98-21.38 344.32-19.49L344.32-19.49L344.32-19.49Q342.66-17.60 339.87-17.60L339.87-17.60L339.87-17.60Q337.09-17.60 335.36-18.24L335.36-18.24L335.36-18.24Q333.63-18.88 333.44-19.07L333.44-19.07L331.14-6.98L331.14-6.98Q332.67-6.78 335.55-6.78L335.55-6.78L335.55-6.78Q340.48-6.78 344-9.86Z" fill="#000"></path></g></g><style>text {
  font-size: 64px;
  font-family: Arial Black;
  dominant-baseline: central;
  text-anchor: middle;
}</style></svg>